# xmcd
#
# Track frame offsets: 
#        150
#        11737
#        22605
#        34724
#        48278
#        61731
#        73890
#        85708
#        96986
#        109305
#        119025
#        129331
#        139298
#        151735
#        162030
#        175400
#        186446
#        195945
#        205355
#        218793
#
# Disc length: 3078 seconds
#
# Revision: 0
# Processed by: cddbd v1.5.2PL0 Copyright (c) Steve Scherf et al.
# Submitted via: ExactAudioCopy v0.99pb5
#
DISCID=140c0414
DTITLE=Ray Price - The Essential Early Recordings - CD1
DYEAR=2014
DGENRE=Country
TTITLE0=If You're Ever Lonely, Darling (1951)
TTITLE1=I Saw My Castles Fall Today (1951)
TTITLE2=You've Got My Troubles Now (1951)
TTITLE3=Weary Blues (From Waiting) (1951)
TTITLE4=I Made A Mistake And I'm Sorry (1951)
TTITLE5=Talk To Your Heart (1952)
TTITLE6=The Road Of No Return (1952)
TTITLE7=I Can't Escape From You (1952)
TTITLE8=Don't Let The Stars Get In Your Eyes (1952)
TTITLE9=That's What I Get For Loving You (1953)
TTITLE10=Cold Shoulder (1953)
TTITLE11=You Weren't Ashamed To Kiss Me (Last Night) (1953)
TTITLE12=The Wrong Side Of Town (1953)
TTITLE13=Who Stole That Train (1953)
TTITLE14=Leave Her Alone (1953)
TTITLE15=I'll Be There (If You Ever Want Me) (1954)
TTITLE16=Much Too Young To Die (1954)
TTITLE17=I Could Love You More (1954)
TTITLE18=What If He Don't Love You (Like I Do) (1954)
TTITLE19=Release Me (1954)
EXTD=
EXTT0=
EXTT1=
EXTT2=
EXTT3=
EXTT4=
EXTT5=
EXTT6=
EXTT7=
EXTT8=
EXTT9=
EXTT10=
EXTT11=
EXTT12=
EXTT13=
EXTT14=
EXTT15=
EXTT16=
EXTT17=
EXTT18=
EXTT19=
PLAYORDER=
